<svg xmlns="http://www.w3.org/2000/svg" viewBox="0 0 130 70" role="img" aria-label="لبنة"><rect x="0.8" y="20.8" width="8.5" height="8.5" rx="0.6" fill="#0E1110"/><rect x="0.8" y="30.8" width="8.5" height="8.5" rx="0.6" fill="#0E1110"/><rect x="0.8" y="40.8" width="8.5" height="8.5" rx="0.6" fill="#0E1110"/><rect x="10.8" y="0.8" width="8.5" height="8.5" rx="0.6" fill="#0E1110"/><rect x="10.8" y="20.8" width="8.5" height="8.5" rx="0.6" fill="#0E1110"/><rect x="10.8" y="40.8" width="8.5" height="8.5" rx="0.6" fill="#0E1110"/><rect x="20.8" y="0.8" width="8.5" height="8.5" rx="0.6" fill="#0E1110"/><rect x="20.8" y="20.8" width="8.5" height="8.5" rx="0.6" fill="#0E1110"/><rect x="20.8" y="40.8" width="8.5" height="8.5" rx="0.6" fill="#0E1110"/><rect x="30.8" y="20.8" width="8.5" height="8.5" rx="0.6" fill="#0E1110"/><rect x="30.8" y="30.8" width="8.5" height="8.5" rx="0.6" fill="#0E1110"/><rect x="30.8" y="40.8" width="8.5" height="8.5" rx="0.6" fill="#0E1110"/><rect x="40.8" y="40.8" width="8.5" height="8.5" rx="0.6" fill="#0E1110"/><rect x="50.8" y="40.8" width="8.5" height="8.5" rx="0.6" fill="#0E1110"/><rect x="60.8" y="0.8" width="8.5" height="8.5" rx="0.6" fill="#0E1110"/><rect x="60.8" y="20.8" width="8.5" height="8.5" rx="0.6" fill="#0E1110"/><rect x="60.8" y="30.8" width="8.5" height="8.5" rx="0.6" fill="#0E1110"/><rect x="60.8" y="40.8" width="8.5" height="8.5" rx="0.6" fill="#0E1110"/><rect x="70.8" y="40.8" width="8.5" height="8.5" rx="0.6" fill="#0E1110"/><rect x="80.8" y="40.8" width="8.5" height="8.5" rx="0.6" fill="#0E1110"/><rect x="90.8" y="20.8" width="8.5" height="8.5" rx="0.6" fill="#0E1110"/><rect x="90.8" y="30.8" width="8.5" height="8.5" rx="0.6" fill="#0E1110"/><rect x="90.8" y="40.8" width="8.5" height="8.5" rx="0.6" fill="#0E1110"/><rect x="90.8" y="60.8" width="8.5" height="8.5" rx="0.6" fill="#0E1110"/><rect x="100.8" y="40.8" width="8.5" height="8.5" rx="0.6" fill="#0E1110"/><rect x="110.8" y="40.8" width="8.5" height="8.5" rx="0.6" fill="#0E1110"/><rect x="120.8" y="0.8" width="8.5" height="8.5" rx="0.6" fill="#0E1110"/><rect x="120.8" y="10.8" width="8.5" height="8.5" rx="0.6" fill="#0E1110"/><rect x="120.8" y="20.8" width="8.5" height="8.5" rx="0.6" fill="#0E1110"/><rect x="120.8" y="30.8" width="8.5" height="8.5" rx="0.6" fill="#0E1110"/><rect x="120.8" y="40.8" width="8.5" height="8.5" rx="0.6" fill="#0E1110"/></svg>